<svg width="1024" height="1024" viewBox="0 0 1024 1024" fill="none" xmlns="http://www.w3.org/2000/svg">
  <path d="M0 0H1024V1024H0V0Z" fill="#FE6B00"/>
  <path d="M288.118 305.496C291.176 306.85 349.755 366.794 356.251 373.329C356.251 373.329 402.04 421.984 416.5 438.292C430.96 454.6 462.333 486.313 469.5 505.292C476.667 524.27 459.174 538.311 449.5 551.792C439.826 565.272 425.512 581.562 416.5 592.292C407.488 603.022 379 632.292 379 632.292C346.84 664.952 326.936 687.717 294.448 720.052C292.536 721.877 289.98 724.007 287.955 725.792C282.526 720.397 275.736 713.982 271 708.172C274.824 702.207 286.495 688.122 291.453 681.717L394.177 548.882C399.358 542.177 404.764 535.372 409.646 528.477C411.479 525.887 416.401 519.144 416.5 516.014C416.578 513.554 415.25 510.167 413.904 507.967C407.359 497.291 399.335 487.535 391.645 477.689L358.322 434.924L304.167 365.224C294.557 352.765 281.146 334.232 271.059 322.717C274.865 317.551 283.216 309.916 288.118 305.496Z" fill="#F9FEFE"/>
  <path d="M726.881 305.496C723.824 306.85 665.245 366.794 658.749 373.329C658.749 373.329 612.96 421.984 598.5 438.292C584.04 454.6 552.667 486.313 545.5 505.292C538.333 524.27 555.826 538.311 565.5 551.792C575.174 565.272 589.488 581.562 598.5 592.292C607.512 603.022 636 632.292 636 632.292C668.161 664.952 688.065 687.717 720.552 720.052C722.464 721.877 725.02 724.007 727.045 725.792C732.474 720.397 739.264 713.982 744 708.172C740.176 702.207 728.505 688.122 723.547 681.717L620.823 548.882C615.641 542.177 610.236 535.372 605.354 528.477C603.521 525.887 598.599 519.144 598.5 516.014C598.422 513.554 599.75 510.167 601.096 507.967C607.641 497.291 615.665 487.535 623.355 477.689L656.678 434.924L710.833 365.224C720.443 352.765 733.854 334.232 743.942 322.717C740.135 317.551 731.783 309.916 726.881 305.496Z" fill="#F9FEFE"/>
</svg>
