<svg width="359" height="91" viewBox="0 0 359 91" fill="none" xmlns="http://www.w3.org/2000/svg">
<path d="M46.333 0H89.0322V42.3963H70.2277C57.031 42.3963 46.333 31.6983 46.333 18.5016V0Z" fill="url(#paint0_linear_1298_21)"/>
<path d="M42.6992 0H7.62939e-05V42.3963H18.8045C32.0012 42.3963 42.6992 31.6983 42.6992 18.5016V0Z" fill="url(#paint1_linear_1298_21)"/>
<path d="M46.333 88.7305H89.0322V46.3342H70.2277C57.031 46.3342 46.333 57.0322 46.333 70.2288V88.7305Z" fill="url(#paint2_linear_1298_21)"/>
<path d="M42.6992 88.7305H7.62939e-05V46.3342H18.8045C32.0012 46.3342 42.6992 57.0322 42.6992 70.2288V88.7305Z" fill="url(#paint3_linear_1298_21)"/>
<path d="M125.169 49.2528H136.101V53.5735H125.169V49.2528ZM136.101 49.2528C139.287 49.2528 141.971 48.991 144.154 48.4672C146.379 47.8999 148.06 46.9179 149.194 45.5213C150.373 44.0811 150.962 42.0517 150.962 39.4331C150.962 36.8145 150.373 34.8069 149.194 33.4103C148.06 32.0137 146.379 31.0536 144.154 30.5299C141.971 30.0061 139.287 29.7443 136.101 29.7443V25.4236C140.291 25.4236 143.87 25.86 146.838 26.7329C149.849 27.6058 152.14 29.0678 153.711 31.119C155.283 33.1266 156.068 35.898 156.068 39.4331C156.068 42.9245 155.283 45.7177 153.711 47.8126C152.14 49.8638 149.849 51.3477 146.838 52.2642C143.87 53.1371 140.291 53.5735 136.101 53.5735V49.2528ZM125.169 25.4236H136.101V29.7443H125.169V25.4236ZM139.898 50.1039H144.808L155.086 71.249H149.522L139.898 50.1039ZM125.169 29.7443V71.249H120.259V29.7443H125.169ZM164.895 54.5555V50.2348H193.7L190.885 52.5915C190.885 49.7111 190.383 47.1798 189.379 44.9976C188.375 42.8154 186.957 41.1133 185.124 39.8913C183.291 38.6257 181.087 37.9929 178.512 37.9929C174.628 37.9929 171.507 39.1276 169.15 41.397C166.794 43.6665 165.375 46.6124 164.895 50.2348H159.92C160.313 46.9179 161.316 44.0156 162.931 41.528C164.546 38.9966 166.685 37.0327 169.347 35.6361C172.009 34.2395 175.064 33.5412 178.512 33.5412C181 33.5412 183.313 34.0213 185.451 34.9815C187.59 35.898 189.423 37.2727 190.95 39.1058C192.521 40.8951 193.678 43.0991 194.42 45.7177C195.205 48.2927 195.489 51.2386 195.271 54.5555H164.895ZM178.512 72.2965C174.933 72.2965 171.769 71.5545 169.019 70.0707C166.314 68.5431 164.153 66.4483 162.538 63.786C160.967 61.1238 160.073 58.0469 159.854 54.5555H164.895C165.201 58.4834 166.51 61.6911 168.823 64.1788C171.18 66.6228 174.409 67.8448 178.512 67.8448C181.872 67.8448 184.469 67.0593 186.302 65.4881C188.135 63.8733 189.401 61.9312 190.099 59.6617H195.14C194.529 62.193 193.481 64.397 191.998 66.2737C190.514 68.1504 188.637 69.6342 186.368 70.7253C184.098 71.7727 181.48 72.2965 178.512 72.2965ZM218.613 72.2965C215.209 72.2965 212.416 71.5327 210.234 70.0052C208.052 68.434 206.415 66.361 205.324 63.786C204.233 61.1674 203.665 58.287 203.622 55.1447L203.491 50.9549C203.622 47.5507 204.276 44.5393 205.455 41.9207C206.633 39.3022 208.313 37.2509 210.496 35.767C212.721 34.2832 215.427 33.5412 218.613 33.5412C221.886 33.5412 224.745 34.3705 227.189 36.0289C229.677 37.6874 231.619 39.9786 233.015 42.9027C234.412 45.8268 235.11 49.1874 235.11 52.9843C235.11 56.7376 234.412 60.0763 233.015 63.0004C231.619 65.9245 229.677 68.2158 227.189 69.8743C224.745 71.4891 221.886 72.2965 218.613 72.2965ZM200.741 71.249V22.1503H205.52V71.249H200.741ZM218.286 67.8448C220.643 67.8448 222.694 67.2557 224.44 66.0773C226.229 64.8989 227.626 63.1968 228.629 60.971C229.633 58.7452 230.135 56.083 230.135 52.9843C230.135 49.842 229.633 47.1579 228.629 44.9321C227.626 42.6627 226.229 40.9388 224.44 39.7604C222.694 38.582 220.643 37.9929 218.286 37.9929C215.493 37.9929 213.136 38.6475 211.216 39.9568C209.339 41.2225 207.921 42.99 206.96 45.2595C206 47.4853 205.52 50.0602 205.52 52.9843C205.52 55.8648 206 58.4397 206.96 60.7092C207.921 62.935 209.339 64.6807 211.216 65.9464C213.136 67.212 215.493 67.8448 218.286 67.8448ZM240.57 22.1503H245.349V71.249H240.57V22.1503ZM281.732 71.249H276.953V34.5887H281.732V71.249ZM276.953 53.1807L278 60.0545C278 61.1893 277.76 62.4549 277.28 63.8515C276.844 65.2481 276.08 66.601 274.989 67.9103C273.941 69.176 272.545 70.2234 270.799 71.0526C269.097 71.8819 266.958 72.2965 264.383 72.2965C262.027 72.2965 259.91 71.8164 258.033 70.8562C256.157 69.8961 254.651 68.3031 253.516 66.0773C252.425 63.8515 251.88 60.8837 251.88 57.1741V34.5887H256.659V56.323C256.659 58.8543 256.942 60.9929 257.51 62.7386C258.121 64.4843 259.059 65.8154 260.325 66.7319C261.59 67.6485 263.27 68.1067 265.365 68.1067C267.548 68.1067 269.511 67.4739 271.257 66.2082C273.003 64.8989 274.378 63.1314 275.381 60.9056C276.429 58.6361 276.953 56.0612 276.953 53.1807ZM292.181 54.5555V50.2348H320.985L318.171 52.5915C318.171 49.7111 317.669 47.1798 316.665 44.9976C315.661 42.8154 314.243 41.1133 312.41 39.8913C310.577 38.6257 308.373 37.9929 305.798 37.9929C301.913 37.9929 298.793 39.1276 296.436 41.397C294.079 43.6665 292.661 46.6124 292.181 50.2348H287.206C287.598 46.9179 288.602 44.0156 290.217 41.528C291.832 38.9966 293.97 37.0327 296.633 35.6361C299.295 34.2395 302.35 33.5412 305.798 33.5412C308.285 33.5412 310.598 34.0213 312.737 34.9815C314.875 35.898 316.708 37.2727 318.236 39.1058C319.807 40.8951 320.964 43.0991 321.706 45.7177C322.491 48.2927 322.775 51.2386 322.557 54.5555H292.181ZM305.798 72.2965C302.219 72.2965 299.055 71.5545 296.305 70.0707C293.599 68.5431 291.439 66.4483 289.824 63.786C288.253 61.1238 287.358 58.0469 287.14 54.5555H292.181C292.486 58.4834 293.796 61.6911 296.109 64.1788C298.466 66.6228 301.695 67.8448 305.798 67.8448C309.158 67.8448 311.755 67.0593 313.588 65.4881C315.421 63.8733 316.687 61.9312 317.385 59.6617H322.426C321.815 62.193 320.767 64.397 319.283 66.2737C317.8 68.1504 315.923 69.6342 313.653 70.7253C311.384 71.7727 308.765 72.2965 305.798 72.2965ZM331.486 59.6617C331.704 62.3676 332.839 64.4843 334.89 66.0118C336.985 67.4957 339.538 68.2376 342.55 68.2376C345.517 68.2376 347.874 67.6485 349.62 66.4701C351.365 65.2917 352.238 63.5242 352.238 61.1674C352.238 59.8145 351.78 58.767 350.864 58.0251C349.991 57.2832 348.812 56.7158 347.328 56.323C345.845 55.9302 344.23 55.6029 342.484 55.3411C340.738 55.0792 338.971 54.7737 337.181 54.4245C335.436 54.0318 333.821 53.4862 332.337 52.7879C330.853 52.046 329.653 51.0422 328.736 49.7765C327.864 48.4672 327.427 46.7652 327.427 44.6703C327.427 42.7063 328.016 40.8733 329.195 39.1712C330.373 37.4691 332.053 36.1162 334.235 35.1124C336.461 34.065 339.058 33.5412 342.026 33.5412C344.688 33.5412 347.088 34.0868 349.227 35.1779C351.409 36.2253 353.133 37.6874 354.399 39.564C355.708 41.4407 356.363 43.6228 356.363 46.1105H352.238C352.064 43.4046 350.973 41.3097 348.965 39.8259C347.001 38.342 344.601 37.6001 341.764 37.6001C338.578 37.6001 336.178 38.2765 334.563 39.6295C332.948 40.9388 332.141 42.619 332.141 44.6703C332.141 46.1105 332.577 47.2234 333.45 48.009C334.366 48.7946 335.567 49.4056 337.05 49.842C338.534 50.2348 340.149 50.5621 341.895 50.824C343.684 51.0858 345.452 51.4132 347.198 51.8059C348.943 52.1551 350.558 52.6788 352.042 53.3771C353.526 54.0318 354.704 54.9919 355.577 56.2576C356.494 57.4796 356.952 59.1162 356.952 61.1674C356.952 63.4805 356.363 65.4663 355.184 67.1247C354.006 68.7832 352.326 70.0707 350.143 70.9872C347.961 71.86 345.321 72.2965 342.222 72.2965C339.342 72.2965 336.767 71.7509 334.497 70.6598C332.228 69.5251 330.417 68.0194 329.064 66.1428C327.754 64.2225 327.056 62.0621 326.969 59.6617H331.486Z" fill="black"/>
<defs>
<linearGradient id="paint0_linear_1298_21" x1="79.5919" y1="8.69464" x2="30.3762" y2="37.215" gradientUnits="userSpaceOnUse">
<stop stop-color="#FE6B00"/>
<stop offset="1" stop-color="white"/>
</linearGradient>
<linearGradient id="paint1_linear_1298_21" x1="9.44036" y1="8.69464" x2="58.6561" y2="37.215" gradientUnits="userSpaceOnUse">
<stop stop-color="#FE6B00"/>
<stop offset="1" stop-color="white"/>
</linearGradient>
<linearGradient id="paint2_linear_1298_21" x1="79.5919" y1="80.0358" x2="30.3762" y2="51.5155" gradientUnits="userSpaceOnUse">
<stop stop-color="#FE6B00"/>
<stop offset="1" stop-color="white"/>
</linearGradient>
<linearGradient id="paint3_linear_1298_21" x1="9.44036" y1="80.0358" x2="58.6561" y2="51.5155" gradientUnits="userSpaceOnUse">
<stop stop-color="#FE6B00"/>
<stop offset="1" stop-color="white"/>
</linearGradient>
</defs>
</svg>
